<svg xmlns="http://www.w3.org/2000/svg" xmlns:xlink="http://www.w3.org/1999/xlink" width="500" zoomAndPan="magnify" viewBox="0 0 375 374.999991" height="500" preserveAspectRatio="xMidYMid meet" version="1.0"><path fill="#ea0e68" d="M 128.371094 232.636719 C 127.015625 226.8125 130.253906 220.871094 135.902344 218.929688 L 153.902344 212.574219 L 150.667969 203.453125 C 143.136719 182.097656 154.375 158.566406 175.730469 151.035156 C 197.085938 143.503906 220.621094 154.742188 228.152344 176.097656 L 231.386719 185.214844 L 249.390625 178.863281 C 255.039062 176.863281 261.273438 179.449219 263.863281 184.804688 L 305.515625 270.464844 L 316.8125 129.621094 C 317.457031 121.441406 311.871094 114.085938 303.867188 112.5 L 278.277344 107.5 L 280.804688 94.496094 C 286.75 64.019531 266.863281 34.429688 236.386719 28.425781 C 205.910156 22.484375 176.320312 42.371094 170.316406 72.847656 L 167.789062 85.847656 L 142.195312 80.847656 C 134.136719 79.257812 126.191406 83.964844 123.722656 91.789062 L 60.886719 290.351562 C 57.886719 299.824219 63.832031 309.824219 73.597656 311.765625 L 150.019531 326.769531 Z M 273.6875 131.089844 C 272.921875 134.972656 269.15625 137.503906 265.273438 136.738281 C 261.390625 135.972656 258.863281 132.207031 259.625 128.324219 C 260.390625 124.441406 264.15625 121.914062 268.039062 122.675781 C 271.863281 123.441406 274.453125 127.207031 273.6875 131.089844 Z M 184.496094 75.667969 C 188.96875 53.019531 210.972656 38.191406 233.679688 42.605469 C 256.390625 47.019531 271.15625 69.082031 266.746094 91.789062 L 264.214844 104.792969 L 181.964844 88.671875 Z M 171.671875 103.792969 C 175.554688 104.558594 178.082031 108.320312 177.320312 112.203125 C 176.554688 116.089844 172.789062 118.617188 168.90625 117.851562 C 165.023438 117.089844 162.492188 113.324219 163.257812 109.441406 C 163.964844 105.558594 167.730469 103.027344 171.671875 103.792969 Z M 171.671875 103.792969 " fill-opacity="1" fill-rule="nonzero"/><path fill="#ea0e68" d="M 218.265625 179.570312 C 212.675781 163.683594 195.144531 155.269531 179.203125 160.917969 C 163.316406 166.507812 154.902344 184.039062 160.550781 199.984375 L 163.789062 209.101562 L 221.503906 188.746094 Z M 218.265625 179.570312 " fill-opacity="1" fill-rule="nonzero"/><path fill="#ea0e68" d="M 162.90625 222.457031 C 160.199219 223.398438 158.726562 226.398438 159.726562 229.164062 C 160.667969 231.871094 163.667969 233.34375 166.433594 232.34375 C 169.140625 231.402344 170.613281 228.398438 169.613281 225.636719 C 168.671875 222.929688 165.671875 221.457031 162.90625 222.457031 Z M 162.90625 222.457031 " fill-opacity="1" fill-rule="nonzero"/><path fill="#ea0e68" d="M 234.035156 208.457031 C 236.738281 207.515625 238.210938 204.515625 237.210938 201.75 C 236.269531 199.042969 233.269531 197.570312 230.503906 198.570312 C 227.738281 199.570312 226.328125 202.511719 227.328125 205.277344 C 228.328125 207.984375 231.328125 209.457031 234.035156 208.457031 Z M 234.035156 208.457031 " fill-opacity="1" fill-rule="nonzero"/></svg>